<svg id="Capa_1" data-name="Capa 1" xmlns="http://www.w3.org/2000/svg" xmlns:xlink="http://www.w3.org/1999/xlink" viewBox="0 0 94.23 94.23"><defs><style>.cls-1{fill:#fbfbfb;}.cls-2,.cls-5{fill:#329a37;}.cls-3{fill:#fdfdfd;}.cls-4,.cls-6{fill:#fff;}.cls-5{stroke:#339a37;stroke-width:2px;}.cls-5,.cls-6{stroke-miterlimit:10;}.cls-6{stroke:#329a37;stroke-width:1.5px;}</style><symbol id="prueba" data-name="prueba" viewBox="0 0 102.42 102.42"><circle class="cls-1" cx="51.21" cy="51.21" r="51.21"/><path class="cls-2" d="M39.66,52.74a13.11,13.11,0,1,0,13.1,13.12v0A13.12,13.12,0,0,0,39.66,52.74Zm0,24.21a11.11,11.11,0,1,1,11.1-11.12h0A11.12,11.12,0,0,1,39.66,77Z"/><path class="cls-2" d="M69.11,16.83H21.2a1.33,1.33,0,0,0-1.32,1.32V84.26a1.32,1.32,0,0,0,1.32,1.32H57.68l.29-.3c.39-.39.45-.45.3-11.48l12.16,0V18.15A1.33,1.33,0,0,0,69.11,16.83Zm-47.23,2H68.43v53H57.64a1.34,1.34,0,0,0-1.38,1.32v0c.09,6.53.08,9.27.06,10.41H21.88Z"/><path class="cls-2" d="M69.07,17.15H21.15a1.28,1.28,0,0,0-1.27,1.27V83.81a1.43,1.43,0,0,0,1.43,1.45H58L70.4,74.15V18.52A1.36,1.36,0,0,0,69.07,17.15Zm-47.19,2H68.43V73.26l-11.17,10H21.88Z"/><path class="cls-2" d="M27.23,40.77H41.84a1,1,0,0,0,1-1h0a1,1,0,0,0-1-1H27.23a1,1,0,0,0-1,1h0A1,1,0,0,0,27.23,40.77Z"/><path class="cls-2" d="M41.84,38.56H27.23a1.17,1.17,0,0,0,0,2.33H41.84a1.17,1.17,0,0,0,0-2.33ZM27.23,40.64a.92.92,0,0,1-.82-1,.93.93,0,0,1,.82-.82H41.84a.92.92,0,0,1,.82,1,.93.93,0,0,1-.82.82Z"/><path class="cls-2" d="M27.23,34.87h19a1,1,0,0,0,1-1h0a1,1,0,0,0-1-1h-19a1,1,0,0,0-1,1h0A1,1,0,0,0,27.23,34.87Z"/><path class="cls-2" d="M46.19,32.67h-19a1.17,1.17,0,0,0,0,2.33h19a1.17,1.17,0,0,0,.22-2.33A.81.81,0,0,0,46.19,32.67Zm-19,2.08a.92.92,0,0,1-.82-1,.93.93,0,0,1,.82-.82h19a.92.92,0,1,1,.19,1.83H27.19Z"/><path class="cls-2" d="M47.65,40.77h3.77a1,1,0,0,0,1-1h0a1,1,0,0,0-1-1H47.65a1,1,0,0,0-1,1h0A1,1,0,0,0,47.65,40.77Z"/><path class="cls-2" d="M51.41,38.56H47.65a1.17,1.17,0,0,0-.22,2.33h4a1.17,1.17,0,0,0,.22-2.33A.81.81,0,0,0,51.41,38.56Zm-3.76,2.08a.92.92,0,1,1-.19-1.83.61.61,0,0,1,.19,0h3.76a.92.92,0,1,1,.19,1.83h-4Z"/><path class="cls-2" d="M47.41,46.82h0a1,1,0,0,0,1-1h0a1,1,0,0,0-1-1h0a1,1,0,0,0-1,1h0A1,1,0,0,0,47.41,46.82Z"/><path class="cls-2" d="M47.41,44.61a1.17,1.17,0,1,0,1.17,1.17h0A1.19,1.19,0,0,0,47.41,44.61Zm0,2.08a.92.92,0,1,1,.92-.92h0A.93.93,0,0,1,47.41,46.69Z"/><path class="cls-2" d="M51.1,34.87h0a1,1,0,0,0,1-1h0a1,1,0,0,0-1-1h0a1,1,0,0,0-1,1h0A1,1,0,0,0,51.1,34.87Z"/><path class="cls-2" d="M51.1,32.67a1.17,1.17,0,1,0,1.17,1.17h0A1.18,1.18,0,0,0,51.1,32.67Zm0,2.08a.92.92,0,1,1,.92-.92h0A.92.92,0,0,1,51.1,34.75Z"/><path class="cls-2" d="M27.23,28.77H51a1,1,0,0,0,1-1h0a1,1,0,0,0-1-1H27.23a1,1,0,0,0-1,1h0A1,1,0,0,0,27.23,28.77Z"/><path class="cls-2" d="M51,26.56H27.23a1.17,1.17,0,0,0,0,2.34H51a1.17,1.17,0,0,0,0-2.34ZM27.2,28.65a.92.92,0,0,1,0-1.84H51a.92.92,0,1,1,0,1.84Z"/><path class="cls-2" d="M27.23,46.82H40.17a1,1,0,0,0,1-1h0a1,1,0,0,0-1-1H27.23a1,1,0,0,0-1,1h0A1,1,0,0,0,27.23,46.82Z"/><path class="cls-2" d="M40.17,44.61H27.23a1.17,1.17,0,0,0,0,2.33H40.17a1.17,1.17,0,0,0,.22-2.33ZM27.23,46.69a.92.92,0,0,1-.82-1,.93.93,0,0,1,.82-.82H40.17a.92.92,0,0,1,.19,1.83.61.61,0,0,1-.19,0Z"/><rect class="cls-3" x="54.98" y="19.47" width="20.16" height="42.93"/><ellipse class="cls-3" cx="71.19" cy="51.21" rx="16.38" ry="16.14"/><path class="cls-2" d="M71.19,34.07A17.14,17.14,0,1,0,88.57,51.21,17.14,17.14,0,0,0,71.19,34.07Zm0,32.28A15.14,15.14,0,1,1,86.57,51.21,15.14,15.14,0,0,1,71.19,66.35Z"/><circle class="cls-4" cx="71.19" cy="51.21" r="10.6"/><path class="cls-2" d="M71.19,39.61a11.6,11.6,0,1,0,11.6,11.6h0A11.62,11.62,0,0,0,71.19,39.61Zm0,21.2a9.6,9.6,0,1,1,9.6-9.6h0A9.62,9.62,0,0,1,71.19,60.81Z"/><path class="cls-2" d="M66.1,52.25h0a1,1,0,0,0,1-1h0a1,1,0,0,0-1-1h0a1,1,0,0,0-1,1h0A1,1,0,0,0,66.1,52.25Z"/><path class="cls-2" d="M76.28,52.25h0a1,1,0,0,0,1-1h0a1,1,0,0,0-1-1h0a1,1,0,0,0-1,1h0A1,1,0,0,0,76.28,52.25Z"/><path class="cls-2" d="M71.19,52.25h0a1,1,0,0,0,1-1h0a1,1,0,0,0-1-1h0a1,1,0,0,0-1,1h0A1,1,0,0,0,71.19,52.25Z"/><rect class="cls-5" x="70.19" y="30.17" width="2" height="4.61"/><rect class="cls-3" x="66.95" y="17.83" width="8.46" height="11.82" rx="0.11"/><path class="cls-2" d="M75.3,16.83H67.05a1.11,1.11,0,0,0-1,1.11V29.55a1.1,1.1,0,0,0,1.1,1.1h8.2a1.1,1.1,0,0,0,1.1-1.1V17.94A1.11,1.11,0,0,0,75.3,16.83Zm-7.35,2H74.4v9.82H68Z"/><path class="cls-2" d="M39.22,60.65c-3.08,0-5.58,2.88-5.58,6.42s2.5,6.42,5.58,6.42,5.59-2.88,5.59-6.42S42.31,60.65,39.22,60.65Zm0,11.34c-2.25,0-4.08-2.21-4.08-4.92s1.83-4.92,4.08-4.92,4.09,2.21,4.09,4.92S41.48,72,39.22,72Z"/><path class="cls-2" d="M35.19,66l-.41,1.4a12.3,12.3,0,0,1,4.81,2.39c.5.4,1.24,1,2,.24a28.1,28.1,0,0,1,2.86-2.11l-.82-1.26c-1,.66-2,1.37-2.91,2.12l-.19-.15A13.57,13.57,0,0,0,35.19,66Z"/><path class="cls-2" d="M43.25,53.74H35.88a4.11,4.11,0,0,0-4.11,4.11h0v.79a1.54,1.54,0,0,0,1.55,1.55H45.81a1.57,1.57,0,0,0,1.55-1.55v-.79a4.11,4.11,0,0,0-4.11-4.11Zm-9.93,5V57.9a2.61,2.61,0,0,1,2.61-2.61H43.3a2.61,2.61,0,0,1,2.61,2.61h0v.79Z"/><path class="cls-6" d="M39.66,59.42H42.5a.44.44,0,0,0,.44-.42.48.48,0,0,0-.1-.28l-1.31-1.65-1.87-2.35-1.87,2.35-1.31,1.65a.43.43,0,0,0,.06.6.42.42,0,0,0,.28.1Z"/></symbol></defs><use width="102.42" height="102.42" transform="matrix(0.92, 0, 0, -0.92, 0, 94.23)" xlink:href="#prueba"/></svg>